<?xml version="1.0" encoding="utf-8"?>
<!-- Generator: Adobe Illustrator 25.4.1, SVG Export Plug-In . SVG Version: 6.00 Build 0)  -->
<svg version="1.1" id="layer" xmlns="http://www.w3.org/2000/svg" xmlns:xlink="http://www.w3.org/1999/xlink" x="0px" y="0px"
	 viewBox="0 0 600 68.6" style="enable-background:new 0 0 600 68.6;" xml:space="preserve">
<style type="text/css">
	.st0{fill:#ED1C24;}
</style>
<g>
	<path d="M529.5,12.8l-23.4,55.7h20.3l23.4-55.8h-20.3V12.8z M472.6,12.8h-20.3l-23.4,55.8h69.8l6.5-15.5h-49.4L472.6,12.8z
		 M446,12.8h-31.7l-33.2,19.1l8-19.1h-20.3l-23.4,55.8h20.3l9.7-23.2l22.2,23.2h24.9l-26.9-27.4L446,12.8z M298.3,28.3h56.1
		l6.5-15.5h-59.7c-11.7,0-18.6,5.8-22.8,16l-8.8,21c-1.6,3.8-2.4,6.2-2.4,8.8c0,6,4.7,10,11.8,10h58.5l6.5-15.5h-56.2L298.3,28.3z
		 M238.8,0h21.4l-3.6,8.6h-21.4L238.8,0z M213,0h21.4l-3.6,8.6h-21.4L213,0z M240.2,53h-46.1l10.4-24.7h46.2L240.2,53z M259.7,12.8
		h-52.3c-13.2,0-19.3,7.2-23,15.9l-8.8,21.1c-1.7,4.1-2.4,6.4-2.4,8.8c0,6,4.7,10,11.8,10h52.3c13.2,0,19.3-7.2,23-15.9l8.8-21.1
		c1.4-3.5,2.4-5.9,2.4-8.8C271.5,16.8,266.8,12.8,259.7,12.8L259.7,12.8z M106.9,12.8l-6.5,15.5h27.2l-17,40.2h20.3l17-40.2h29.6
		l6.5-15.5H106.9z M16.9,28.6c0,7.5,5.7,12.4,17.9,15.5L69.6,53H6.5L0,68.5h64.3c14.7,0,24.1-6.1,24.1-15.7
		c0-7.5-5.6-12.6-17.3-15.6l-34.8-8.9H93l6.5-15.5H41C26.3,12.8,16.9,18.9,16.9,28.6"/>
	<path class="st0" d="M557.7,31c0-2.3,1.9-4.2,4.2-4.2h33.9c2.3,0,4.2,1.9,4.2,4.2v33.4c0,2.3-1.9,4.2-4.2,4.2h-33.9
		c-2.3,0-4.2-1.9-4.2-4.2V31z M594.7,42.5h-10.6V32.1h-10.6v10.4h-10.6v10.4h10.6v10.4h10.6V52.9h10.6V42.5z"/>
</g>
</svg>
